<?xml version="1.0" encoding="UTF-8"?>
<svg width="18" height="18" version="1.1" viewBox="0 0 18 18" xmlns="http://www.w3.org/2000/svg" xmlns:xlink="http://www.w3.org/1999/xlink">
    <!--Generated by IJSVG (https://github.com/iconjar/IJSVG)-->
    <g transform="scale(0.75)">
        <path fill="#050C40" d="M23.384,21.619l-6.529,-6.529l1.87167e-07,-2.46038e-07c3.10439,-4.08083 2.31283,-9.90559 -1.768,-13.01c-4.08083,-3.10439 -9.90559,-2.31283 -13.01,1.768c-3.10439,4.08083 -2.31283,9.90559 1.768,13.01c3.32141,2.52668 7.92056,2.52668 11.242,-3.74335e-07l6.529,6.529l1.67779e-08,1.63659e-08c0.491735,0.479659 1.27627,0.479659 1.768,-3.27317e-08l-5.44178e-09,5.44904e-09c0.487759,-0.488411 0.487759,-1.27959 -2.51932e-07,-1.768Zm-20.634,-12.119l7.72715e-14,1.01922e-06c-5.62901e-07,-3.72792 3.02208,-6.75 6.75,-6.75c3.72792,-5.62901e-07 6.75,3.02208 6.75,6.75c5.62901e-07,3.72792 -3.02208,6.75 -6.75,6.75l-1.7362e-07,-2.05382e-10c-3.72609,-0.00440781 -6.74559,-3.02391 -6.75,-6.75Z"></path>
    </g>
</svg>